<svg width="20px" height="20px" viewBox="0 0 20 20" version="1.1" xmlns="http://www.w3.org/2000/svg" xmlns:xlink="http://www.w3.org/1999/xlink">
    <g id="Assets" stroke="none" stroke-width="1" fill="none" fill-rule="evenodd">
        <g id="Artboard">
            <g id="add">
                <rect id="bg-copy" fill="#4E9FF8" x="0" y="0" width="20" height="20" rx="10"></rect>
                <path d="M9,9 L5.00247329,9 C4.45576096,9 4,9.44771525 4,10 C4,10.5561352 4.44882258,11 5.00247329,11 L9,11 L9,14.9975267 C9,15.544239 9.44771525,16 10,16 C10.5561352,16 11,15.5511774 11,14.9975267 L11,11 L14.9975267,11 C15.544239,11 16,10.5522847 16,10 C16,9.44386482 15.5511774,9 14.9975267,9 L11,9 L11,5.00247329 C11,4.45576096 10.5522847,4 10,4 C9.44386482,4 9,4.44882258 9,5.00247329 L9,9 Z" id="Combined-Shape" fill="#FFFFFF"></path>
            </g>
        </g>
    </g>
</svg>