<?xml version="1.0" encoding="UTF-8"?>
<svg width="60px" height="60px" viewBox="0 0 60 60" version="1.1" xmlns="http://www.w3.org/2000/svg" xmlns:xlink="http://www.w3.org/1999/xlink">
    <!-- Generator: Sketch 43.2 (39069) - http://www.bohemiancoding.com/sketch -->
    <title>attach</title>
    <desc>Created with Sketch.</desc>
    <defs></defs>
    <g id="UI-Kit" stroke="none" stroke-width="1" fill="none" fill-rule="evenodd">
        <g id="attach" fill-rule="nonzero" fill="#E8EBF1">
            <path d="M40.0505932,23.4849407 L16.7152325,46.8203014 C14.174028,49.3615059 10.2159242,49.5210107 7.872583,47.1776695 C5.53055969,44.8356462 5.69042464,40.8745465 8.22995109,38.3350201 L35.4459153,11.1190559 C40.1350654,6.42990575 46.9420624,5.63697582 50.6525433,9.34745674 C54.3646223,13.0595357 53.5741612,19.8608676 48.8809441,24.5540847 L29.1420682,44.2929606 L31.9325979,47.1592852 L51.7093712,27.3825118 C57.9673356,21.1245475 58.7530483,11.7911075 53.4809704,6.51902961 C48.2077333,1.24579249 38.8679933,2.04012363 32.6174882,8.29062875 L5.40152397,35.5065929 C1.30111651,39.6070004 1.13891296,46.1008537 5.04415588,50.0060967 C8.95025745,53.9121982 15.4410477,53.7513404 19.5436596,49.6487286 L42.8790203,26.3133678 C45.4058019,23.7865863 45.4127766,19.6640392 42.8743687,17.1256313 C40.3411259,14.5923886 36.222471,14.5851408 33.6866322,17.1209797 L17.7720779,33.0355339 L20.6005051,35.863961 L36.5150593,19.9494068 C37.4858867,18.9785794 39.0718808,18.9799977 40.0459415,19.9540585 C41.0189042,20.9270211 41.0186267,22.5169072 40.0505932,23.4849407 Z" id="Combined-Shape"></path>
        </g>
    </g>
</svg>