<?xml version="1.0" encoding="UTF-8"?>
<svg width="60px" height="60px" viewBox="0 0 60 60" version="1.1" xmlns="http://www.w3.org/2000/svg" xmlns:xlink="http://www.w3.org/1999/xlink">
    <!-- Generator: Sketch 43.2 (39069) - http://www.bohemiancoding.com/sketch -->
    <title>csv</title>
    <desc>Created with Sketch.</desc>
    <defs></defs>
    <g id="UI-Kit" stroke="none" stroke-width="1" fill="none" fill-rule="evenodd">
        <g id="csv" fill-rule="nonzero" fill="#4E9EF8">
            <path d="M51,32.5001925 L51,44.6666667 C51,47.6126182 48.6082943,50 45.6666667,50 L26.3333333,50 C23.3857984,50 21,47.6176071 21,44.6666667 L21,39 L11.0042577,39 C8.79276724,39 7,37.2111696 7,35.0037973 L7,26.9962027 C7,24.7891609 8.78902751,23 11.0042577,23 L21,23 L21,15.3333333 C21,12.3873818 23.3917057,10 26.3333333,10 L39.3333333,10 L33.5001925,10 L34.000385,10 C35.1047419,10 36,10.8877296 36,12 C36,13.1045695 35.1125667,14 34.000385,14 L30.4998075,14 L27.3783784,14 C26.0664327,14 25,15.103608 25,16.4615385 L25,23 L34.9957423,23 C37.2072328,23 39,24.7888304 39,26.9962027 L39,35.0037973 C39,37.2108391 37.2109725,39 34.9957423,39 L25,39 L25,43.5384615 C25,44.9013553 26.0615103,46 27.3783784,46 L44.6216216,46 C45.9335673,46 47,44.896392 47,43.5384615 L47,32.5001925 L47,26.999615 C47,25.8952581 47.8877296,25 49,25 C50.1045695,25 51,25.8874333 51,26.999615 L51,32.5001925 Z M17.7073302,28.9170889 L18.4400374,27.9431244 C17.9992195,27.4963495 17.504796,27.1568057 16.9567521,26.9244827 C16.4087082,26.6921597 15.7713189,26.576 15.044565,26.576 C14.2880262,26.576 13.6223415,26.6981166 13.0474911,26.9423536 C12.4726407,27.1865906 11.990131,27.5216667 11.5999476,27.9475921 C11.2097642,28.3735176 10.9148972,28.8768764 10.7153377,29.4576838 C10.5157782,30.0384912 10.416,30.6624775 10.416,31.3296614 C10.416,32.0921572 10.5306705,32.7712449 10.760015,33.3669448 C10.9893594,33.9626447 11.2991187,34.4645143 11.6893022,34.8725688 C12.0794856,35.2806232 12.5322107,35.5918717 13.0474911,35.8063237 C13.5627715,36.0207756 14.1033611,36.128 14.669276,36.128 C14.9849969,36.128 15.3096485,36.1056616 15.6432404,36.0609841 C15.9768324,36.0163066 16.3089301,35.9358883 16.6395435,35.8197268 C16.9701569,35.7035654 17.2933193,35.5427288 17.6090402,35.3372123 C17.9247612,35.1316959 18.2255851,34.8651242 18.511521,34.5374892 L17.7073302,33.5456539 C17.5941472,33.3848149 17.4273538,33.3043966 17.2069448,33.3043966 C17.0401488,33.3043966 16.9016507,33.346095 16.7914462,33.429493 C16.6812417,33.512891 16.5606143,33.6037338 16.4295603,33.7020243 C16.2985064,33.8003148 16.139159,33.8896684 15.9515136,33.9700879 C15.7638681,34.0505074 15.5092102,34.0907166 15.1875323,34.0907166 C14.5858754,34.0907166 14.1137903,33.8524402 13.7712629,33.3758803 C13.4287354,32.8993203 13.2574743,32.2172542 13.2574743,31.3296614 C13.2574743,30.9067144 13.2961942,30.5269615 13.3736352,30.190391 C13.4510762,29.8538206 13.5702144,29.5693781 13.7310533,29.3370552 C13.8918923,29.1047322 14.0959164,28.9260249 14.3431319,28.800928 C14.5903474,28.675831 14.8837251,28.6132834 15.2232741,28.6132834 C15.497296,28.6132834 15.7266371,28.6460464 15.911304,28.7115734 C16.095971,28.7771004 16.2568075,28.8500726 16.3938185,28.930492 C16.5308295,29.0109115 16.6544354,29.0838837 16.7646399,29.1494107 C16.8748443,29.2149377 16.9984502,29.2477007 17.1354612,29.2477007 C17.2784292,29.2477007 17.388632,29.2179161 17.466073,29.1583461 C17.543514,29.0987761 17.6239322,29.0183578 17.7073302,28.9170889 Z M25.3739495,28.7473152 L25.9994312,27.7733508 C25.8266783,27.6005978 25.6271218,27.4412505 25.4007558,27.295304 C25.1743899,27.1493575 24.9241997,27.0227732 24.6501777,26.9155472 C24.3761558,26.8083213 24.082778,26.7249245 23.7700355,26.6653545 C23.4572931,26.6057845 23.1341308,26.576 22.8005388,26.576 C22.1869679,26.576 21.6508461,26.6549291 21.1921572,26.8127895 C20.7334682,26.97065 20.352226,27.1836095 20.0484191,27.4516745 C19.7446121,27.7197394 19.5167603,28.0309879 19.3648569,28.3854294 C19.2129534,28.7398708 19.1370028,29.1136669 19.1370028,29.5068288 C19.1370028,29.9297757 19.1995504,30.2901688 19.3246473,30.5880187 C19.4497443,30.8858687 19.6135593,31.1375481 19.8160973,31.3430645 C20.0186353,31.548581 20.2494655,31.7183529 20.5085949,31.8523854 C20.7677244,31.9864179 21.0313176,32.1010884 21.2993826,32.1964004 C21.5674476,32.2917124 21.8310408,32.3765983 22.0901703,32.4510608 C22.3492997,32.5255233 22.58013,32.6059416 22.7826679,32.6923181 C22.9852059,32.7786945 23.1490209,32.8814512 23.2741179,33.0005912 C23.3992148,33.1197312 23.4617624,33.2716324 23.4617624,33.4562993 C23.4617624,33.5575683 23.4409132,33.6558573 23.3992142,33.7511693 C23.3575152,33.8464813 23.2919892,33.9328565 23.2026342,34.0102975 C23.1132793,34.0877385 22.9941411,34.1487968 22.8452161,34.1934743 C22.6962911,34.2381518 22.5146054,34.2604902 22.3001534,34.2604902 C21.9963465,34.2604902 21.744667,34.2247487 21.5451076,34.1532647 C21.3455481,34.0817807 21.1713085,34.0043409 21.0223835,33.9209429 C20.8734586,33.837545 20.7349604,33.7601051 20.6068849,33.6886211 C20.4788095,33.6171372 20.3343544,33.5813957 20.1735154,33.5813957 C20.0007625,33.5813957 19.8607751,33.6156479 19.7535491,33.6841534 C19.6463231,33.7526589 19.553991,33.8464802 19.47655,33.9656202 L18.8331974,34.9842619 C19.0119073,35.1451009 19.2263561,35.2955129 19.47655,35.4355023 C19.726744,35.5754918 19.9992726,35.6961192 20.2941441,35.7973882 C20.5890155,35.8986572 20.8943071,35.9790755 21.2100281,36.0386455 C21.525749,36.0982155 21.8414652,36.128 22.1571862,36.128 C22.788628,36.128 23.3470883,36.0505602 23.8325837,35.8956782 C24.3180791,35.7407962 24.7261274,35.523369 25.0567409,35.2433901 C25.3873543,34.9634111 25.6360553,34.6298242 25.8028513,34.2426193 C25.9696472,33.8554143 26.053044,33.4324738 26.053044,32.9737848 C26.053044,32.5984939 25.9919856,32.2768208 25.8698672,32.0087558 C25.7477487,31.7406909 25.5854229,31.5128391 25.3828849,31.3251936 C25.180347,31.1375482 24.951006,30.9796901 24.694855,30.8516146 C24.4387041,30.7235391 24.1766,30.6118471 23.9085351,30.5165351 C23.6404701,30.4212231 23.3783661,30.3348479 23.1222152,30.2574069 C22.8660642,30.1799659 22.6367232,30.0980584 22.4341852,30.0116819 C22.2316473,29.9253055 22.0693215,29.8255272 21.947203,29.7123442 C21.8250845,29.5991613 21.7640262,29.4561954 21.7640262,29.2834425 C21.7640262,29.0451625 21.8578475,28.8590091 22.045493,28.7249766 C22.2331384,28.5909441 22.5026886,28.5239289 22.8541515,28.5239289 C23.0983885,28.5239289 23.3158157,28.5522242 23.5064397,28.6088157 C23.6970636,28.6654072 23.8683248,28.7264655 24.0202283,28.7919925 C24.1721317,28.8575195 24.3136083,28.9185778 24.4446623,28.9751693 C24.5757163,29.0317608 24.7067683,29.0600561 24.8378223,29.0600561 C24.9629192,29.0600561 25.0656759,29.0362285 25.1460954,28.9885725 C25.2265149,28.9409165 25.3024655,28.8604982 25.3739495,28.7473152 Z M32.7010215,35.9850327 L36.2930739,26.7189673 L34.0949523,26.7189673 C33.9162423,26.7189673 33.7613627,26.7651333 33.6303087,26.8574668 C33.4992547,26.9498003 33.4099011,27.0644708 33.3622451,27.2014818 L32.021927,31.3564677 C31.9147011,31.6960167 31.8134336,32.0266251 31.7181216,32.3483031 C31.6228096,32.669981 31.5423913,32.9916541 31.4768644,33.3133321 C31.4113374,32.9916541 31.3324083,32.669981 31.2400748,32.3483031 C31.1477414,32.0266251 31.0509416,31.6960167 30.9496726,31.3564677 L29.6629673,27.2014818 C29.6153113,27.0644708 29.5244684,26.9498003 29.3904359,26.8574668 C29.2564034,26.7651333 29.0910992,26.7189673 28.8945182,26.7189673 L26.5891712,26.7189673 L30.1812236,35.9850327 L32.7010215,35.9850327 Z M38,10 L51,23 L42.0065045,23 C39.7937732,23 38,21.2060545 38,18.9934955 L38,10 Z" id="Combined-Shape"></path>
        </g>
    </g>
</svg>