<?xml version="1.0" encoding="UTF-8"?>
<svg width="24px" height="24px" viewBox="0 0 24 24" version="1.1" xmlns="http://www.w3.org/2000/svg" xmlns:xlink="http://www.w3.org/1999/xlink">
    <!-- Generator: Sketch 43.2 (39069) - http://www.bohemiancoding.com/sketch -->
    <title>failed</title>
    <desc>Created with Sketch.</desc>
    <defs></defs>
    <g id="UI-Kit" stroke="none" stroke-width="1" fill="none" fill-rule="evenodd">
        <g id="failed" fill="#F46771">
            <path fill="#fff" d="M11.9044012,10.2771866 L9.86761505,8.24040041 C9.41900643,7.79179179 8.69152166,7.79283583 8.24217874,8.24217874 C7.7897031,8.69465439 7.79203965,9.41925428 8.24040041,9.86761505 L10.2771866,11.9044012 L8.24040041,13.9411874 C7.79203965,14.3895482 7.7897031,15.1141481 8.24217874,15.5666237 C8.69152166,16.0159666 9.41900643,16.0170107 9.86761505,15.568402 L11.9044012,13.5316159 L13.9411874,15.568402 C14.389796,16.0170107 15.1172808,16.0159666 15.5666237,15.5666237 C16.0190994,15.1141481 16.0167628,14.3895482 15.568402,13.9411874 L13.5316159,11.9044012 L15.568402,9.86761505 C16.0167628,9.41925428 16.0190994,8.69465439 15.5666237,8.24217874 C15.1172808,7.79283583 14.389796,7.79179179 13.9411874,8.24040041 L11.9044012,10.2771866 Z M12,22 C6.4771525,22 2,17.5228475 2,12 C2,6.4771525 6.4771525,2 12,2 C17.5228475,2 22,6.4771525 22,12 C22,17.5228475 17.5228475,22 12,22 Z" id="Combined-Shape"></path>
        </g>
    </g>
</svg>