<?xml version="1.0" encoding="UTF-8"?>
<svg width="24px" height="24px" viewBox="0 0 24 24" version="1.1" xmlns="http://www.w3.org/2000/svg" xmlns:xlink="http://www.w3.org/1999/xlink">
    <!-- Generator: Sketch 43.2 (39069) - http://www.bohemiancoding.com/sketch -->
    <title>limit</title>
    <desc>Created with Sketch.</desc>
    <defs></defs>
    <g id="UI-Kit" stroke="none" stroke-width="1" fill="none" fill-rule="evenodd">
        <g id="limit" fill-rule="nonzero" fill="#CBCFDA">
            <path d="M12.8975668,12.1365776 L16.6027615,7.19631805 C16.9266014,6.76453152 17.5581722,6.66862915 18,7 C18.4449081,7.33368111 18.5326072,7.95652374 18.2027615,8.39631805 L14.4972593,13.3369877 C14.8148588,13.8129611 15,14.3848595 15,15 C15,16.6568542 13.6568542,18 12,18 C10.3431458,18 9,16.6568542 9,15 C9,13.3431458 10.3431458,12 12,12 C12.3126667,12 12.6141617,12.0478319 12.8975668,12.1365776 Z M15.0438152,5.47167543 L13.2014888,8.10279023 C12.8092582,8.03496652 12.4076334,8 12,8 C8.13400675,8 5,11.1340068 5,15 L5,17.001359 C5,17.557743 4.55275191,18.0004731 4.00104344,18.0004731 L2.99895656,18.0004731 C2.44266033,18.0004731 2,17.5531545 2,17.001359 L2,15 C2,9.4771525 6.4771525,5 12,5 C13.0613407,5 14.0840634,5.16534284 15.0438152,5.47167543 Z M20.1899978,9.26058006 C21.3305276,10.8850796 22,12.864358 22,15 L22,17.001359 C22,17.557743 21.5527519,18.0004731 21.0010434,18.0004731 L19.9989566,18.0004731 C19.4426603,18.0004731 19,17.5531545 19,17.001359 L19,15 C19,13.9245123 18.7585893,12.8894877 18.304768,11.9529673 L20.1899978,9.26058006 Z M12,16 C12.5522847,16 13,15.5522847 13,15 C13,14.4477153 12.5522847,14 12,14 C11.4477153,14 11,14.4477153 11,15 C11,15.5522847 11.4477153,16 12,16 Z" id="Combined-Shape"></path>
        </g>
    </g>
</svg>