<?xml version="1.0" encoding="UTF-8"?>
<svg width="24px" height="24px" viewBox="0 0 24 24" version="1.1" xmlns="http://www.w3.org/2000/svg" xmlns:xlink="http://www.w3.org/1999/xlink">
    <!-- Generator: Sketch 43.2 (39069) - http://www.bohemiancoding.com/sketch -->
    <title>location</title>
    <desc>Created with Sketch.</desc>
    <defs></defs>
    <g id="UI-Kit" stroke="none" stroke-width="1" fill="none" fill-rule="evenodd">
        <g id="location" fill="#CBCFDA">
            <path d="M10.6330937,22.5618823 C10.6330937,22.5618823 3,15.0241537 3,10 C3,5.04489413 7.02943725,1 12,1 C16.9705627,1 21,5.04489413 21,10 C21,15.0241537 13.3767032,22.5512167 13.3767032,22.5512167 C12.6186064,23.3624145 11.3880152,23.3561328 10.6330937,22.5618823 Z M12,12 C13.6568542,12 15,10.6568542 15,9 C15,7.34314575 13.6568542,6 12,6 C10.3431458,6 9,7.34314575 9,9 C9,10.6568542 10.3431458,12 12,12 Z" id="Combined-Shape"></path>
        </g>
    </g>
</svg>