<?xml version="1.0" encoding="UTF-8"?>
<svg width="31px" height="30px" viewBox="0 0 31 30" version="1.1" xmlns="http://www.w3.org/2000/svg" xmlns:xlink="http://www.w3.org/1999/xlink">
    <!-- Generator: Sketch 43.2 (39069) - http://www.bohemiancoding.com/sketch -->
    <title>shop-02</title>
    <desc>Created with Sketch.</desc>
    <defs></defs>
    <g id="UI-Kit" stroke="none" stroke-width="1" fill="none" fill-rule="evenodd">
        <g id="shop-02" fill="#CBCFDA">
            <path d="M24.0000139,11 C24.0049961,12.6553442 25.3462266,14 27,14 L27,25 L4,25 L4,14 C5.65041273,14 6.99499857,12.6577095 6.99998608,11 L1,11 L5,2 L26,2 L30,11 L24.0000129,11 Z M23.9999877,11 L13.0000129,11 C13.0049961,12.6553442 14.3462266,14 16,14 C17.0418683,14 17.9618611,13.4650823 18.4999115,12.6535779 C19.0373599,13.4645986 19.9564573,14 21,14 C22.6504127,14 23.9949986,12.6577095 23.9999861,11 Z M12.9999871,11 L7.00001235,11 C7.00499607,12.6553442 8.34622657,14 10,14 C11.6504127,14 12.9949986,12.6577095 12.9999861,11 Z M1,26.5 C1,25.6715729 1.67415592,25 2.49809915,25 L28.5019009,25 C29.3292782,25 30,25.6657972 30,26.5 C30,27.3284271 29.3258441,28 28.5019009,28 L2.49809915,28 C1.67072183,28 1,27.3342028 1,26.5 Z M8,16 L8,25 L14,25 L14,16 L8,16 Z M18,16 L18,21 L23,21 L23,16 L18,16 Z" id="Combined-Shape"></path>
        </g>
    </g>
</svg>