<?xml version="1.0" encoding="utf-8"?>
<!-- Generator: Adobe Illustrator 21.1.0, SVG Export Plug-In . SVG Version: 6.00 Build 0)  -->
<svg version="1.1" id="Layer_1" xmlns="http://www.w3.org/2000/svg" xmlns:xlink="http://www.w3.org/1999/xlink" x="0px" y="0px"
	 viewBox="0 0 18 18" style="enable-background:new 0 0 18 18;" xml:space="preserve">
<style type="text/css">
	.st0{fill:#CBCFDA;}
</style>
<title>institutions</title>
<desc>Created with Sketch.</desc>
<g id="UI-Kit">
	<g id="institutions">
		<path id="Institutions" class="st0" d="M10,8h6c1.1,0,2,0.9,2,2v6c0,1.1-0.9,2-2,2H7.5H2c-1.1,0-2-0.9-2-2V2c0-1.1,0.9-2,2-2h6
			c1.1,0,2,0.9,2,2V8z M2,2v2h2V2H2z M6,2v2h2V2H6z M2,6v2h2V6H2z M6,6v2h2V6H6z M2,10v2h2v-2H2z M6,10v2h2v-2H6z M10,10v2h2v-2H10z
			 M10,14v2h2v-2H10z M6,14v4h2v-4H6z M2,14v2h2v-2H2z M14,14v2h2v-2H14z M14,10v2h2v-2H14z"/>
	</g>
</g>
</svg>
