<svg width="23px" height="24px" viewBox="0 0 23 24">
    <g id="UI-Kit" stroke="none" stroke-width="1" fill="none" fill-rule="evenodd">
        <g id="plus">
            <g id="+" transform="translate(2.000000, 2.000000)">
                <rect id="bg-copy-2" fill="#CBCFDA" x="0" y="0" width="20" height="20" rx="3"></rect>
                <path d="M8.5,9 L5.49554521,9 C4.67955446,9 4,9.67157288 4,10.5 C4,11.3342028 4.6695784,12 5.49554521,12 L8.5,12 L8.5,15.0044548 C8.5,15.8204455 9.17157288,16.5 10,16.5 C10.8342028,16.5 11.5,15.8304216 11.5,15.0044548 L11.5,12 L14.5044548,12 C15.3204455,12 16,11.3284271 16,10.5 C16,9.66579723 15.3304216,9 14.5044548,9 L11.5,9 L11.5,5.99554521 C11.5,5.17955446 10.8284271,4.5 10,4.5 C9.16579723,4.5 8.5,5.1695784 8.5,5.99554521 L8.5,9 Z" id="Combined-Shape" fill="#FFFFFF"></path>
            </g>
        </g>
    </g>
</svg>