<svg width="24px" height="24px" viewBox="0 0 24 24">
    <g id="Assets" stroke="none" stroke-width="1" fill="none" fill-rule="evenodd">
        <g id="request" fill="#CBCFDA">
            <path d="M16.3713203,10.3713203 L19,13 L19,5 L11,5 L13.5428932,7.54289322 L9.52512627,11.5606602 L12.3535534,14.3890873 L16.3713203,10.3713203 Z M11,22 L11,18.0023695 C11,15.7918218 9.20622683,14 6.99349548,14 L2,14 L2,5.99922997 C2,3.79051625 3.79246765,2 5.99922997,2 L18.00077,2 C20.2094838,2 22,3.79246765 22,5.99922997 L22,18.00077 C22,20.2094838 20.2075324,22 18.00077,22 L11,22 Z M9,22 L3,16 L7.00208688,16 C8.10550383,16 9,16.8982606 9,17.9979131 L9,22 Z" id="Combined-Shape"></path>
        </g>
    </g>
</svg>