<svg width="24px" height="24px" viewBox="0 0 24 24">
    <g id="Assets" stroke="none" stroke-width="1" fill="none" fill-rule="evenodd">
        <g id="response" fill="#CBCFDA">
            <path d="M12.5428932,8.54289322 L10,6 L10,14 L18,14 L15.3713203,11.3713203 L20.3033009,6.43933983 L17.4748737,3.6109127 L12.5428932,8.54289322 Z M11,22 L11,18.0023695 C11,15.7918218 9.20622683,14 6.99349548,14 L2,14 L2,5.99922997 C2,3.79051625 3.79246765,2 5.99922997,2 L18.00077,2 C20.2094838,2 22,3.79246765 22,5.99922997 L22,18.00077 C22,20.2094838 20.2075324,22 18.00077,22 L11,22 Z M9,22 L3,16 L7.00208688,16 C8.10550383,16 9,16.8982606 9,17.9979131 L9,22 Z" id="Combined-Shape"></path>
        </g>
    </g>
</svg>