<svg width="23px" height="24px" viewBox="0 0 23 24" version="1.1" xmlns="http://www.w3.org/2000/svg" xmlns:xlink="http://www.w3.org/1999/xlink">
    <g id="UI-Kit" stroke="none" stroke-width="1" fill="none" fill-rule="evenodd">
        <g id="view-as-xml" fill="#4E9FF8">
            <path d="M7.74264069,16.3284271 L9.95626843,14.1147994 C10.3379666,13.7331012 10.3402718,13.0976311 9.94974747,12.7071068 C9.55650051,12.3138598 8.92897773,12.313663 8.54205487,12.7005858 L5.70058582,15.5420549 C5.4883444,15.7542963 5.39340607,16.0450005 5.41808082,16.3284271 C5.39340607,16.6118538 5.4883444,16.902558 5.70058582,17.1147994 L8.54205487,19.9562684 C8.92897773,20.3431913 9.55650051,20.3429944 9.94974747,19.9497475 C10.3402718,19.5592232 10.3379666,18.9237531 9.95626843,18.5420549 L7.74264069,16.3284271 Z M18.2387734,16.3284271 C18.2634482,16.0450005 18.1685099,15.7542963 17.9562684,15.5420549 L15.1147994,12.7005858 C14.7278765,12.313663 14.1003537,12.3138598 13.7071068,12.7071068 C13.3165825,13.0976311 13.3188876,13.7331012 13.7005858,14.1147994 L15.9142136,16.3284271 L13.7005858,18.5420549 C13.3188876,18.9237531 13.3165825,19.5592232 13.7071068,19.9497475 C14.1003537,20.3429944 14.7278765,20.3431913 15.1147994,19.9562684 L17.9562684,17.1147994 C18.1685099,16.902558 18.2634482,16.6118538 18.2387734,16.3284271 Z M14,2 L20,8 L20,18.00077 C20,20.2094838 18.212833,22 15.9927643,22 L7.00723574,22 C4.79410055,22 3,20.2075324 3,18.00077 L3,5.99922997 C3,3.79051625 4.78716697,2 7.00723574,2 L14,2 Z M13,3 L13,8.00922203 C13,8.54902482 13.4435864,9 13.990778,9 L19,9 L13,3 Z" id="Combined-Shape"></path>
        </g>
    </g>
</svg>